<mxfile host="Electron" agent="Mozilla/5.0 (Windows NT 10.0; Win64; x64) AppleWebKit/537.36 (KHTML, like Gecko) draw.io/28.1.2 Chrome/138.0.7204.243 Electron/37.4.0 Safari/537.36" version="28.1.2" pages="2">
  <diagram name="Page-1" id="mvDb_Kd92rDcgLwUR48M">
    <mxGraphModel dx="1042" dy="626" grid="0" gridSize="10" guides="1" tooltips="1" connect="1" arrows="1" fold="1" page="1" pageScale="1" pageWidth="1200" pageHeight="1600" background="none" math="0" shadow="0">
      <root>
        <mxCell id="0" />
        <mxCell id="1" parent="0" />
        <mxCell id="jN1JfyGR_ZHe_GP9HwII-1" value="&lt;h1 style=&quot;margin-top: 0px;&quot;&gt;integration model&lt;/h1&gt;&lt;p&gt;DOCUMENT (HOW TO TABLES ARE RELATED&lt;/p&gt;" style="text;html=1;whiteSpace=wrap;overflow=hidden;rounded=0;labelBackgroundColor=none;fontColor=#333333;sketch=1;curveFitting=1;jiggle=2;fillColor=#f5f5f5;strokeColor=#666666;" parent="1" vertex="1">
          <mxGeometry x="4" y="3" width="264" height="120" as="geometry" />
        </mxCell>
        <mxCell id="jN1JfyGR_ZHe_GP9HwII-3" value="&lt;font style=&quot;font-size: 17px; color: rgb(102, 0, 51);&quot; face=&quot;Times New Roman&quot;&gt;CRM_CUST_INFO&lt;/font&gt;" style="swimlane;fontStyle=0;childLayout=stackLayout;horizontal=1;startSize=30;horizontalStack=0;resizeParent=1;resizeParentMax=0;resizeLast=0;collapsible=1;marginBottom=0;whiteSpace=wrap;html=1;labelBackgroundColor=none;fillColor=default;strokeColor=#BAC8D3;fontColor=#EEEEEE;shadow=1;rounded=1;sketch=1;curveFitting=1;jiggle=2;glass=0;gradientColor=none;swimlaneFillColor=none;labelBorderColor=none;textShadow=1;convertToSvg=0;" parent="1" vertex="1">
          <mxGeometry x="443" y="454" width="153" height="90" as="geometry">
            <mxRectangle x="463" y="304" width="173" height="32" as="alternateBounds" />
          </mxGeometry>
        </mxCell>
        <mxCell id="jN1JfyGR_ZHe_GP9HwII-5" value="CST_ID" style="text;strokeColor=none;fillColor=none;align=left;verticalAlign=middle;spacingLeft=4;spacingRight=4;overflow=hidden;points=[[0,0.5],[1,0.5]];portConstraint=eastwest;rotatable=0;html=1;labelBackgroundColor=none;fontColor=default;sketch=1;curveFitting=1;jiggle=2;whiteSpace=wrap;textShadow=0;fontFamily=Helvetica;" parent="jN1JfyGR_ZHe_GP9HwII-3" vertex="1">
          <mxGeometry y="30" width="153" height="30" as="geometry" />
        </mxCell>
        <mxCell id="8acILNu5yyo7tEhajvuI-9" value="CST_KEY" style="text;strokeColor=none;fillColor=none;align=left;verticalAlign=middle;spacingLeft=4;spacingRight=4;overflow=hidden;points=[[0,0.5],[1,0.5]];portConstraint=eastwest;rotatable=0;html=1;labelBackgroundColor=none;fontColor=default;sketch=1;curveFitting=1;jiggle=2;whiteSpace=wrap;textShadow=0;fontFamily=Helvetica;" parent="jN1JfyGR_ZHe_GP9HwII-3" vertex="1">
          <mxGeometry y="60" width="153" height="30" as="geometry" />
        </mxCell>
        <mxCell id="jN1JfyGR_ZHe_GP9HwII-18" value="&lt;font face=&quot;Verdana&quot;&gt;CUSTOMER INFORMATION&lt;/font&gt;" style="text;html=1;align=center;verticalAlign=middle;whiteSpace=wrap;rounded=0;fontFamily=Architects Daughter;fontSource=https%3A%2F%2Ffonts.googleapis.com%2Fcss%3Ffamily%3DArchitects%2BDaughter;fontSize=10;" parent="1" vertex="1">
          <mxGeometry x="443" y="430" width="153" height="30" as="geometry" />
        </mxCell>
        <mxCell id="jN1JfyGR_ZHe_GP9HwII-19" value="&lt;font style=&quot;font-size: 17px; color: light-dark(rgb(2, 13, 156), rgb(255, 193, 237));&quot; face=&quot;Times New Roman&quot;&gt;CRM_PRD_INFO&lt;/font&gt;" style="swimlane;fontStyle=0;childLayout=stackLayout;horizontal=1;startSize=30;horizontalStack=0;resizeParent=1;resizeParentMax=0;resizeLast=0;collapsible=1;marginBottom=0;whiteSpace=wrap;html=1;labelBackgroundColor=none;fillColor=default;strokeColor=#BAC8D3;fontColor=#EEEEEE;shadow=1;rounded=1;sketch=1;curveFitting=1;jiggle=2;glass=0;gradientColor=none;swimlaneFillColor=none;labelBorderColor=none;textShadow=1;convertToSvg=0;" parent="1" vertex="1">
          <mxGeometry x="443" y="284" width="153" height="60" as="geometry">
            <mxRectangle x="463" y="304" width="173" height="32" as="alternateBounds" />
          </mxGeometry>
        </mxCell>
        <mxCell id="jN1JfyGR_ZHe_GP9HwII-20" value="PRD_KEY" style="text;strokeColor=none;fillColor=none;align=left;verticalAlign=middle;spacingLeft=4;spacingRight=4;overflow=hidden;points=[[0,0.5],[1,0.5]];portConstraint=eastwest;rotatable=0;html=1;labelBackgroundColor=none;fontColor=default;sketch=1;curveFitting=1;jiggle=2;whiteSpace=wrap;textShadow=0;fontFamily=Helvetica;" parent="jN1JfyGR_ZHe_GP9HwII-19" vertex="1">
          <mxGeometry y="30" width="153" height="30" as="geometry" />
        </mxCell>
        <mxCell id="jN1JfyGR_ZHe_GP9HwII-21" value="&lt;font face=&quot;Verdana&quot;&gt;CURRENT &amp;amp; HISTORY PRODUCT INFORMATION&lt;/font&gt;" style="text;html=1;align=center;verticalAlign=middle;whiteSpace=wrap;rounded=0;fontFamily=Architects Daughter;fontSource=https%3A%2F%2Ffonts.googleapis.com%2Fcss%3Ffamily%3DArchitects%2BDaughter;fontSize=10;" parent="1" vertex="1">
          <mxGeometry x="443" y="254" width="153" height="30" as="geometry" />
        </mxCell>
        <mxCell id="jN1JfyGR_ZHe_GP9HwII-22" value="&lt;font style=&quot;font-size: 14px;&quot; face=&quot;Times New Roman&quot; color=&quot;#020d9c&quot;&gt;CRM_SALES_DETAILS&lt;/font&gt;" style="swimlane;fontStyle=0;childLayout=stackLayout;horizontal=1;startSize=30;horizontalStack=0;resizeParent=1;resizeParentMax=0;resizeLast=0;collapsible=1;marginBottom=0;whiteSpace=wrap;html=1;labelBackgroundColor=none;fillColor=default;strokeColor=#BAC8D3;fontColor=#EEEEEE;shadow=1;rounded=1;sketch=1;curveFitting=1;jiggle=2;glass=0;gradientColor=none;swimlaneFillColor=none;labelBorderColor=none;textShadow=1;convertToSvg=0;" parent="1" vertex="1">
          <mxGeometry x="113" y="370" width="153" height="90" as="geometry">
            <mxRectangle x="112" y="398" width="173" height="32" as="alternateBounds" />
          </mxGeometry>
        </mxCell>
        <mxCell id="jN1JfyGR_ZHe_GP9HwII-23" value="PRD_KEY" style="text;strokeColor=none;fillColor=none;align=left;verticalAlign=middle;spacingLeft=4;spacingRight=4;overflow=hidden;points=[[0,0.5],[1,0.5]];portConstraint=eastwest;rotatable=0;html=1;labelBackgroundColor=none;fontColor=default;sketch=1;curveFitting=1;jiggle=2;whiteSpace=wrap;textShadow=0;fontFamily=Helvetica;" parent="jN1JfyGR_ZHe_GP9HwII-22" vertex="1">
          <mxGeometry y="30" width="153" height="30" as="geometry" />
        </mxCell>
        <mxCell id="jN1JfyGR_ZHe_GP9HwII-34" value="CST_ID" style="text;strokeColor=none;fillColor=none;align=left;verticalAlign=middle;spacingLeft=4;spacingRight=4;overflow=hidden;points=[[0,0.5],[1,0.5]];portConstraint=eastwest;rotatable=0;html=1;labelBackgroundColor=none;fontColor=default;sketch=1;curveFitting=1;jiggle=2;whiteSpace=wrap;textShadow=0;fontFamily=Helvetica;" parent="jN1JfyGR_ZHe_GP9HwII-22" vertex="1">
          <mxGeometry y="60" width="153" height="30" as="geometry" />
        </mxCell>
        <mxCell id="jN1JfyGR_ZHe_GP9HwII-24" value="&lt;font face=&quot;Verdana&quot;&gt;TRUNSACTIONAL RECORDS ABOUT SALES &amp;amp; ORDERS&lt;/font&gt;" style="text;html=1;align=center;verticalAlign=middle;whiteSpace=wrap;rounded=0;fontFamily=Architects Daughter;fontSource=https%3A%2F%2Ffonts.googleapis.com%2Fcss%3Ffamily%3DArchitects%2BDaughter;fontSize=10;" parent="1" vertex="1">
          <mxGeometry x="113" y="340" width="153" height="30" as="geometry" />
        </mxCell>
        <mxCell id="8acILNu5yyo7tEhajvuI-1" value="&lt;font style=&quot;color: light-dark(rgb(0, 102, 51), rgb(255, 193, 237));&quot; face=&quot;Times New Roman&quot;&gt;&lt;span style=&quot;font-size: 17px;&quot;&gt;ERP_CUST_AZ12&lt;/span&gt;&lt;/font&gt;" style="swimlane;fontStyle=0;childLayout=stackLayout;horizontal=1;startSize=30;horizontalStack=0;resizeParent=1;resizeParentMax=0;resizeLast=0;collapsible=1;marginBottom=0;whiteSpace=wrap;html=1;labelBackgroundColor=none;fillColor=default;strokeColor=#BAC8D3;fontColor=#EEEEEE;shadow=1;rounded=1;sketch=1;curveFitting=1;jiggle=2;glass=0;gradientColor=none;swimlaneFillColor=none;labelBorderColor=none;textShadow=1;convertToSvg=0;" parent="1" vertex="1">
          <mxGeometry x="811" y="484" width="153" height="60" as="geometry">
            <mxRectangle x="463" y="304" width="173" height="32" as="alternateBounds" />
          </mxGeometry>
        </mxCell>
        <mxCell id="8acILNu5yyo7tEhajvuI-2" value="CID" style="text;strokeColor=none;fillColor=none;align=left;verticalAlign=middle;spacingLeft=4;spacingRight=4;overflow=hidden;points=[[0,0.5],[1,0.5]];portConstraint=eastwest;rotatable=0;html=1;labelBackgroundColor=none;fontColor=default;sketch=1;curveFitting=1;jiggle=2;whiteSpace=wrap;textShadow=0;fontFamily=Helvetica;" parent="8acILNu5yyo7tEhajvuI-1" vertex="1">
          <mxGeometry y="30" width="153" height="30" as="geometry" />
        </mxCell>
        <mxCell id="8acILNu5yyo7tEhajvuI-3" value="&lt;font face=&quot;Verdana&quot;&gt;EXTRA CUSTOMER INFORMATION (BIRTHDATE)&lt;/font&gt;" style="text;html=1;align=center;verticalAlign=middle;whiteSpace=wrap;rounded=0;fontFamily=Architects Daughter;fontSource=https%3A%2F%2Ffonts.googleapis.com%2Fcss%3Ffamily%3DArchitects%2BDaughter;fontSize=10;" parent="1" vertex="1">
          <mxGeometry x="811" y="456" width="153" height="30" as="geometry" />
        </mxCell>
        <mxCell id="8acILNu5yyo7tEhajvuI-10" style="edgeStyle=orthogonalEdgeStyle;rounded=0;sketch=1;hachureGap=4;jiggle=2;curveFitting=1;orthogonalLoop=1;jettySize=auto;html=1;entryX=0;entryY=0.5;entryDx=0;entryDy=0;fontFamily=Architects Daughter;fontSource=https%3A%2F%2Ffonts.googleapis.com%2Fcss%3Ffamily%3DArchitects%2BDaughter;" parent="1" source="jN1JfyGR_ZHe_GP9HwII-23" target="jN1JfyGR_ZHe_GP9HwII-20" edge="1">
          <mxGeometry relative="1" as="geometry" />
        </mxCell>
        <mxCell id="8acILNu5yyo7tEhajvuI-11" style="edgeStyle=orthogonalEdgeStyle;rounded=0;sketch=1;hachureGap=4;jiggle=2;curveFitting=1;orthogonalLoop=1;jettySize=auto;html=1;entryX=0;entryY=0.5;entryDx=0;entryDy=0;fontFamily=Architects Daughter;fontSource=https%3A%2F%2Ffonts.googleapis.com%2Fcss%3Ffamily%3DArchitects%2BDaughter;" parent="1" source="jN1JfyGR_ZHe_GP9HwII-34" target="jN1JfyGR_ZHe_GP9HwII-5" edge="1">
          <mxGeometry relative="1" as="geometry" />
        </mxCell>
        <mxCell id="8acILNu5yyo7tEhajvuI-12" style="edgeStyle=orthogonalEdgeStyle;rounded=0;sketch=1;hachureGap=4;jiggle=2;curveFitting=1;orthogonalLoop=1;jettySize=auto;html=1;entryX=0;entryY=0.5;entryDx=0;entryDy=0;fontFamily=Architects Daughter;fontSource=https%3A%2F%2Ffonts.googleapis.com%2Fcss%3Ffamily%3DArchitects%2BDaughter;" parent="1" source="8acILNu5yyo7tEhajvuI-9" target="8acILNu5yyo7tEhajvuI-2" edge="1">
          <mxGeometry relative="1" as="geometry" />
        </mxCell>
        <mxCell id="8acILNu5yyo7tEhajvuI-13" value="&lt;font style=&quot;color: light-dark(rgb(102, 51, 0), rgb(255, 193, 237));&quot; face=&quot;Times New Roman&quot;&gt;&lt;span style=&quot;font-size: 17px;&quot;&gt;ERP_LOC_A101&lt;/span&gt;&lt;/font&gt;" style="swimlane;fontStyle=0;childLayout=stackLayout;horizontal=1;startSize=30;horizontalStack=0;resizeParent=1;resizeParentMax=0;resizeLast=0;collapsible=1;marginBottom=0;whiteSpace=wrap;html=1;labelBackgroundColor=none;fillColor=default;strokeColor=#BAC8D3;fontColor=#EEEEEE;shadow=1;rounded=1;sketch=1;curveFitting=1;jiggle=2;glass=0;gradientColor=none;swimlaneFillColor=none;labelBorderColor=none;textShadow=1;convertToSvg=0;" parent="1" vertex="1">
          <mxGeometry x="811" y="607" width="153" height="60" as="geometry">
            <mxRectangle x="463" y="304" width="173" height="32" as="alternateBounds" />
          </mxGeometry>
        </mxCell>
        <mxCell id="8acILNu5yyo7tEhajvuI-14" value="CID" style="text;strokeColor=none;fillColor=none;align=left;verticalAlign=middle;spacingLeft=4;spacingRight=4;overflow=hidden;points=[[0,0.5],[1,0.5]];portConstraint=eastwest;rotatable=0;html=1;labelBackgroundColor=none;fontColor=default;sketch=1;curveFitting=1;jiggle=2;whiteSpace=wrap;textShadow=0;fontFamily=Helvetica;" parent="8acILNu5yyo7tEhajvuI-13" vertex="1">
          <mxGeometry y="30" width="153" height="30" as="geometry" />
        </mxCell>
        <mxCell id="8acILNu5yyo7tEhajvuI-15" value="&lt;font face=&quot;Verdana&quot;&gt;LOCATION OF CUSTOEMRS (COUNYTY)&lt;/font&gt;" style="text;html=1;align=center;verticalAlign=middle;whiteSpace=wrap;rounded=0;fontFamily=Architects Daughter;fontSource=https%3A%2F%2Ffonts.googleapis.com%2Fcss%3Ffamily%3DArchitects%2BDaughter;fontSize=10;" parent="1" vertex="1">
          <mxGeometry x="811" y="579" width="153" height="30" as="geometry" />
        </mxCell>
        <mxCell id="8acILNu5yyo7tEhajvuI-16" style="edgeStyle=orthogonalEdgeStyle;rounded=0;sketch=1;hachureGap=4;jiggle=2;curveFitting=1;orthogonalLoop=1;jettySize=auto;html=1;entryX=0;entryY=0.5;entryDx=0;entryDy=0;fontFamily=Architects Daughter;fontSource=https%3A%2F%2Ffonts.googleapis.com%2Fcss%3Ffamily%3DArchitects%2BDaughter;" parent="1" source="8acILNu5yyo7tEhajvuI-9" target="8acILNu5yyo7tEhajvuI-14" edge="1">
          <mxGeometry relative="1" as="geometry" />
        </mxCell>
        <mxCell id="8acILNu5yyo7tEhajvuI-17" value="&lt;font style=&quot;color: light-dark(rgb(153, 0, 153), rgb(255, 193, 237));&quot; face=&quot;Times New Roman&quot;&gt;&lt;span style=&quot;font-size: 17px;&quot;&gt;ERP_CUST_AZ12&lt;/span&gt;&lt;/font&gt;" style="swimlane;fontStyle=0;childLayout=stackLayout;horizontal=1;startSize=30;horizontalStack=0;resizeParent=1;resizeParentMax=0;resizeLast=0;collapsible=1;marginBottom=0;whiteSpace=wrap;html=1;labelBackgroundColor=none;fillColor=default;strokeColor=#BAC8D3;fontColor=#EEEEEE;shadow=1;rounded=1;sketch=1;curveFitting=1;jiggle=2;glass=0;gradientColor=none;swimlaneFillColor=none;labelBorderColor=none;textShadow=1;convertToSvg=0;" parent="1" vertex="1">
          <mxGeometry x="807" y="284" width="153" height="60" as="geometry">
            <mxRectangle x="463" y="304" width="173" height="32" as="alternateBounds" />
          </mxGeometry>
        </mxCell>
        <mxCell id="8acILNu5yyo7tEhajvuI-18" value="ID" style="text;strokeColor=none;fillColor=none;align=left;verticalAlign=middle;spacingLeft=4;spacingRight=4;overflow=hidden;points=[[0,0.5],[1,0.5]];portConstraint=eastwest;rotatable=0;html=1;labelBackgroundColor=none;fontColor=default;sketch=1;curveFitting=1;jiggle=2;whiteSpace=wrap;textShadow=0;fontFamily=Helvetica;" parent="8acILNu5yyo7tEhajvuI-17" vertex="1">
          <mxGeometry y="30" width="153" height="30" as="geometry" />
        </mxCell>
        <mxCell id="8acILNu5yyo7tEhajvuI-19" value="&lt;font face=&quot;Verdana&quot;&gt;PRODUCT CATEGORIES&lt;/font&gt;" style="text;html=1;align=center;verticalAlign=middle;whiteSpace=wrap;rounded=0;fontFamily=Architects Daughter;fontSource=https%3A%2F%2Ffonts.googleapis.com%2Fcss%3Ffamily%3DArchitects%2BDaughter;fontSize=10;" parent="1" vertex="1">
          <mxGeometry x="807" y="256" width="153" height="30" as="geometry" />
        </mxCell>
        <mxCell id="8acILNu5yyo7tEhajvuI-20" style="edgeStyle=orthogonalEdgeStyle;rounded=0;sketch=1;hachureGap=4;jiggle=2;curveFitting=1;orthogonalLoop=1;jettySize=auto;html=1;entryX=0;entryY=0.5;entryDx=0;entryDy=0;fontFamily=Architects Daughter;fontSource=https%3A%2F%2Ffonts.googleapis.com%2Fcss%3Ffamily%3DArchitects%2BDaughter;" parent="1" source="jN1JfyGR_ZHe_GP9HwII-20" target="8acILNu5yyo7tEhajvuI-18" edge="1">
          <mxGeometry relative="1" as="geometry" />
        </mxCell>
        <mxCell id="8acILNu5yyo7tEhajvuI-21" value="" style="rounded=1;whiteSpace=wrap;html=1;sketch=1;hachureGap=4;jiggle=2;curveFitting=1;fontFamily=Architects Daughter;fontSource=https%3A%2F%2Ffonts.googleapis.com%2Fcss%3Ffamily%3DArchitects%2BDaughter;fillColor=none;strokeColor=default;" parent="1" vertex="1">
          <mxGeometry x="51" y="185" width="604" height="519" as="geometry" />
        </mxCell>
        <mxCell id="8acILNu5yyo7tEhajvuI-22" value="&lt;b&gt;&lt;font style=&quot;color: rgb(0, 0, 51); font-size: 24px;&quot;&gt;CRM&lt;/font&gt;&lt;/b&gt;" style="rounded=0;whiteSpace=wrap;html=1;sketch=1;hachureGap=4;jiggle=2;curveFitting=1;fontFamily=Architects Daughter;fontSource=https%3A%2F%2Ffonts.googleapis.com%2Fcss%3Ffamily%3DArchitects%2BDaughter;fillColor=#f5f5f5;gradientColor=#b3b3b3;strokeColor=#666666;" parent="1" vertex="1">
          <mxGeometry x="305.5" y="165" width="95" height="40" as="geometry" />
        </mxCell>
        <mxCell id="8acILNu5yyo7tEhajvuI-24" value="" style="rounded=1;whiteSpace=wrap;html=1;sketch=1;hachureGap=4;jiggle=2;curveFitting=1;fontFamily=Architects Daughter;fontSource=https%3A%2F%2Ffonts.googleapis.com%2Fcss%3Ffamily%3DArchitects%2BDaughter;fillColor=none;" parent="1" vertex="1">
          <mxGeometry x="741.5" y="185" width="284" height="520" as="geometry" />
        </mxCell>
        <mxCell id="8acILNu5yyo7tEhajvuI-25" value="&lt;b&gt;&lt;font style=&quot;color: rgb(0, 0, 51); font-size: 24px;&quot;&gt;ERP&lt;/font&gt;&lt;/b&gt;" style="rounded=0;whiteSpace=wrap;html=1;sketch=1;hachureGap=4;jiggle=2;curveFitting=1;fontFamily=Architects Daughter;fontSource=https%3A%2F%2Ffonts.googleapis.com%2Fcss%3Ffamily%3DArchitects%2BDaughter;fillColor=#e6d0de;gradientColor=#d5739d;strokeColor=#996185;" parent="1" vertex="1">
          <mxGeometry x="836" y="165" width="95" height="40" as="geometry" />
        </mxCell>
        <mxCell id="597nxnsJrAj4CBW8012T-7" value="&lt;font face=&quot;Times New Roman&quot;&gt;product&lt;/font&gt;" style="text;align=center;fontStyle=1;verticalAlign=middle;spacingLeft=3;spacingRight=3;rotatable=0;points=[[0,0.5],[1,0.5]];portConstraint=eastwest;html=1;fontFamily=Architects Daughter;fontSource=https%3A%2F%2Ffonts.googleapis.com%2Fcss%3Ffamily%3DArchitects%2BDaughter;fontSize=15;fillColor=#eeeeee;strokeColor=#36393d;" vertex="1" parent="1">
          <mxGeometry x="819" y="344" width="129" height="21" as="geometry" />
        </mxCell>
        <mxCell id="597nxnsJrAj4CBW8012T-8" value="&lt;font face=&quot;Times New Roman&quot;&gt;product&lt;/font&gt;" style="text;align=center;fontStyle=1;verticalAlign=middle;spacingLeft=3;spacingRight=3;rotatable=0;points=[[0,0.5],[1,0.5]];portConstraint=eastwest;html=1;fontFamily=Architects Daughter;fontSource=https%3A%2F%2Ffonts.googleapis.com%2Fcss%3Ffamily%3DArchitects%2BDaughter;fontSize=15;fillColor=#eeeeee;strokeColor=#36393d;" vertex="1" parent="1">
          <mxGeometry x="455" y="344" width="129" height="20" as="geometry" />
        </mxCell>
        <mxCell id="597nxnsJrAj4CBW8012T-9" value="&lt;font face=&quot;Times New Roman&quot;&gt;sales&lt;/font&gt;" style="text;align=center;fontStyle=1;verticalAlign=middle;spacingLeft=3;spacingRight=3;rotatable=0;points=[[0,0.5],[1,0.5]];portConstraint=eastwest;html=1;fontFamily=Architects Daughter;fontSource=https%3A%2F%2Ffonts.googleapis.com%2Fcss%3Ffamily%3DArchitects%2BDaughter;fontSize=15;fillColor=#cce5ff;strokeColor=#36393d;" vertex="1" parent="1">
          <mxGeometry x="125" y="460" width="129" height="21" as="geometry" />
        </mxCell>
        <mxCell id="597nxnsJrAj4CBW8012T-10" value="&lt;font face=&quot;Times New Roman&quot;&gt;customer&lt;/font&gt;" style="text;align=center;fontStyle=1;verticalAlign=middle;spacingLeft=3;spacingRight=3;rotatable=0;points=[[0,0.5],[1,0.5]];portConstraint=eastwest;html=1;fontFamily=Architects Daughter;fontSource=https%3A%2F%2Ffonts.googleapis.com%2Fcss%3Ffamily%3DArchitects%2BDaughter;fontSize=15;fillColor=#e6d0de;strokeColor=#996185;gradientColor=#d5739d;" vertex="1" parent="1">
          <mxGeometry x="455" y="544" width="129" height="20" as="geometry" />
        </mxCell>
        <mxCell id="597nxnsJrAj4CBW8012T-11" value="&lt;font face=&quot;Times New Roman&quot;&gt;customer&lt;/font&gt;" style="text;align=center;fontStyle=1;verticalAlign=middle;spacingLeft=3;spacingRight=3;rotatable=0;points=[[0,0.5],[1,0.5]];portConstraint=eastwest;html=1;fontFamily=Architects Daughter;fontSource=https%3A%2F%2Ffonts.googleapis.com%2Fcss%3Ffamily%3DArchitects%2BDaughter;fontSize=15;fillColor=#e6d0de;strokeColor=#996185;gradientColor=#d5739d;" vertex="1" parent="1">
          <mxGeometry x="823" y="544" width="129" height="18" as="geometry" />
        </mxCell>
        <mxCell id="597nxnsJrAj4CBW8012T-12" value="&lt;font face=&quot;Times New Roman&quot;&gt;customer&lt;/font&gt;" style="text;align=center;fontStyle=1;verticalAlign=middle;spacingLeft=3;spacingRight=3;rotatable=0;points=[[0,0.5],[1,0.5]];portConstraint=eastwest;html=1;fontFamily=Architects Daughter;fontSource=https%3A%2F%2Ffonts.googleapis.com%2Fcss%3Ffamily%3DArchitects%2BDaughter;fontSize=15;fillColor=#e6d0de;strokeColor=#996185;gradientColor=#d5739d;" vertex="1" parent="1">
          <mxGeometry x="823" y="667" width="129" height="19" as="geometry" />
        </mxCell>
      </root>
    </mxGraphModel>
  </diagram>
  <diagram id="TKlJvIGz8X-hBzrEDQ2C" name="Page-2">
    <mxGraphModel grid="0" page="1" gridSize="10" guides="1" tooltips="1" connect="1" arrows="1" fold="1" pageScale="1" pageWidth="1200" pageHeight="1600" math="0" shadow="0">
      <root>
        <mxCell id="0" />
        <mxCell id="1" parent="0" />
      </root>
    </mxGraphModel>
  </diagram>
</mxfile>
